PathFileType	3	(X/Y/Z)	/mnt/e/Research/Bio/Osim_support/Data/PSU100/10hz/Subject7/trcs/Take_2_10hz.trc
DataRate	CameraRate	NumFrames	NumMarkers	Units	OrigDataRate	OrigDataStartFrame	OrigNumFrames
50.0	50.0	9	39	mm	50.0	844	16876	
Frame#	Time	LFHD			RFHD			LBHD			RBHD			C7			T10			CLAV			STRN			RBAK			LSHO			LUPA			LELB			LFRM			LWRA			LWRB			LFIN			RSHO			RUPA			RELB			RFRM			RWRA			RWRB			RFIN			LASI			RASI			LPSI			RPSI			LTHI			LKNE			LTIB			LANK			LHEE			LTOE			RTHI			RKNE			RTIB			RANK			RHEE			RTOE	
	X1	Y1	Z1	X2	Y2	Z2	X3	Y3	Z3	X4	Y4	Z4	X5	Y5	Z5	X6	Y6	Z6	X7	Y7	Z7	X8	Y8	Z8	X9	Y9	Z9	X10	Y10	Z10	X11	Y11	Z11	X12	Y12	Z12	X13	Y13	Z13	X14	Y14	Z14	X15	Y15	Z15	X16	Y16	Z16	X17	Y17	Z17	X18	Y18	Z18	X19	Y19	Z19	X20	Y20	Z20	X21	Y21	Z21	X22	Y22	Z22	X23	Y23	Z23	X24	Y24	Z24	X25	Y25	Z25	X26	Y26	Z26	X27	Y27	Z27	X28	Y28	Z28	X29	Y29	Z29	X30	Y30	Z30	X31	Y31	Z31	X32	Y32	Z32	X33	Y33	Z33	X34	Y34	Z34	X35	Y35	Z35	X36	Y36	Z36	X37	Y37	Z37	X38	Y38	Z38	X39	Y39	Z39
845	16.88000	-890.37200	1503.49000	1433.21000	-876.52200	1513.00000	1331.61000	-703.85700	1480.60000	1443.93000	-707.78300	1486.67000	1340.24000	-704.72500	1332.56000	1369.57000	-609.64400	994.73900	1359.96000	-826.49100	1241.90000	1379.11000	-861.49000	1089.49000	1389.49000	-631.10300	1199.98000	1285.10000	-742.83400	1309.60000	1529.13000	-824.67500	1249.34000	1638.18000	-930.40500	1233.84000	1701.50000	-1074.20000	1265.70000	1768.56000	-1188.85000	1361.83000	1760.60000	-1208.76000	1289.91000	1801.77000	-1268.05000	1343.07000	1817.45000	-755.33700	1338.83000	1245.34000	-757.99500	1298.52000	1058.35000	-753.06600	1272.25000	955.85800	-840.42600	1357.70000	971.92200	-856.18600	1419.56000	1114.50000	-926.84800	1434.84000	1067.62000	-935.02600	1475.17000	1125.45000	-737.02300	811.59200	1512.41000	-830.13400	836.72000	1256.92000	-597.73000	844.17500	1465.58000	-661.40800	857.07000	1218.22000	-700.87600	569.48600	1588.95000	-681.86400	397.78200	1602.48000	-544.38300	330.55800	1495.56000	-433.48400	232.70600	1365.15000	-449.68800	293.28600	1279.18000	-384.26500	31.61170	1295.69000	-868.82100	630.10400	1218.13000	-881.37800	408.55000	1265.29000	-769.54100	228.45800	1307.39000	-666.80100	82.25450	1381.06000	-611.12800	45.99450	1468.74000	-852.84900	47.74090	1354.73000
846	16.90000	-885.40500	1497.05000	1449.67000	-877.96300	1507.23000	1347.53000	-698.59100	1474.46000	1448.66000	-709.22700	1481.26000	1345.39000	-704.91700	1326.56000	1373.35000	-609.04500	990.15800	1357.17000	-825.72300	1235.39000	1389.99000	-858.91500	1081.32000	1402.55000	-636.17300	1195.30000	1284.18000	-736.15700	1302.70000	1534.77000	-816.32700	1240.54000	1643.56000	-923.27300	1223.64000	1705.85000	-1067.81000	1253.81000	1772.61000	-1182.08000	1349.96000	1766.41000	-1203.17000	1276.53000	1803.80000	-1262.35000	1329.31000	1821.94000	-767.84900	1331.64000	1252.02000	-786.35200	1289.36000	1066.49000	-794.20400	1262.09000	965.19500	-875.31100	1343.26000	1003.61000	-867.62900	1388.27000	1154.58000	-941.82800	1412.43000	1117.95000	-941.70600	1446.51000	1177.72000	-724.61500	803.15200	1514.28000	-836.14700	831.48200	1264.80000	-589.26000	839.63100	1459.85000	-669.79600	854.77700	1217.40000	-658.05300	550.13000	1563.50000	-617.92400	380.73200	1564.40000	-483.90700	316.96100	1447.06000	-378.42200	225.26000	1311.64000	-403.25400	279.84800	1223.89000	-328.88900	20.88930	1241.36000	-876.39400	627.17800	1225.42000	-889.16600	406.19700	1273.30000	-774.88800	227.57500	1310.62000	-667.57100	82.94490	1381.37000	-610.99400	45.68180	1468.72000	-853.16700	47.84530	1355.08000
847	16.92000	-876.12700	1491.66000	1464.15000	-875.75300	1501.26000	1361.46000	-689.81900	1468.92000	1450.35000	-707.83900	1475.18000	1347.77000	-702.81900	1320.02000	1375.10000	-605.87600	986.36500	1351.49000	-821.54300	1228.94000	1401.08000	-851.29100	1073.35000	1416.55000	-638.83100	1190.78000	1281.07000	-725.17200	1296.38000	1538.76000	-802.68000	1230.94000	1647.19000	-911.09900	1211.26000	1708.08000	-1057.03000	1239.41000	1773.56000	-1171.39000	1335.22000	1767.23000	-1193.43000	1260.24000	1801.51000	-1252.60000	1313.05000	1820.96000	-776.87600	1323.28000	1258.42000	-819.61700	1279.15000	1077.16000	-842.88600	1251.66000	980.30200	-917.92400	1324.21000	1039.24000	-881.90400	1355.82000	1191.63000	-960.51800	1383.92000	1167.39000	-952.51600	1414.75000	1224.46000	-705.24900	795.62000	1514.73000	-838.48600	824.82000	1275.91000	-575.78400	838.68200	1449.48000	-677.84300	852.57600	1215.41000	-618.56400	539.59200	1539.29000	-564.10800	373.79600	1526.92000	-434.25300	311.82300	1399.95000	-335.39800	223.49400	1258.99000	-365.85900	272.02600	1169.49000	-284.69800	17.29820	1200.38000	-883.38700	625.41800	1236.09000	-896.27800	404.99100	1284.67000	-780.56400	226.64700	1316.43000	-668.66200	83.42840	1381.70000	-610.69000	45.05780	1468.50000	-853.51300	48.25530	1355.77000
848	16.94000	-864.26100	1486.32000	1475.23000	-871.37000	1495.58000	1372.72000	-679.13900	1465.44000	1448.17000	-704.73800	1471.11000	1346.91000	-697.67500	1316.51000	1372.94000	-600.39300	983.32000	1342.83000	-813.79900	1224.01000	1409.87000	-840.00400	1066.48000	1428.03000	-638.37500	1187.14000	1274.89000	-709.93200	1291.04000	1540.14000	-783.33300	1220.38000	1647.64000	-893.32300	1196.29000	1707.43000	-1041.35000	1221.24000	1770.69000	-1155.73000	1317.07000	1764.05000	-1178.43000	1241.16000	1795.91000	-1237.90000	1293.39000	1815.40000	-783.00600	1313.90000	1262.15000	-855.35700	1263.28000	1092.43000	-895.51700	1233.38000	1004.58000	-961.78000	1295.92000	1081.42000	-897.74500	1321.96000	1226.37000	-977.52300	1351.19000	1215.55000	-960.93800	1382.07000	1268.25000	-684.72300	790.07300	1512.59000	-835.74000	819.54900	1284.84000	-561.06200	838.02100	1437.19000	-682.28000	851.60300	1210.94000	-582.62800	535.90000	1517.73000	-519.04200	374.02500	1493.48000	-397.30700	312.44500	1355.14000	-309.96000	218.44100	1206.27000	-344.02100	265.41300	1115.90000	-259.54900	18.56930	1170.76000	-886.34100	624.33700	1243.44000	-900.21500	404.44700	1292.12000	-784.09100	226.24500	1320.77000	-669.56700	83.04590	1382.48000	-610.52900	44.86820	1468.19000	-853.71000	48.70820	1356.28000
849	16.96000	-848.66400	1482.38000	1482.04000	-863.01800	1491.09000	1380.24000	-665.70100	1462.82000	1442.43000	-698.10600	1467.55000	1342.97000	-690.17200	1313.23000	1368.03000	-593.01600	981.10900	1331.33000	-802.87400	1219.61000	1414.25000	-826.60600	1060.68000	1434.24000	-636.92700	1184.28000	1266.05000	-692.85400	1285.98000	1538.67000	-762.02500	1209.29000	1644.09000	-873.42200	1179.81000	1702.70000	-1023.44000	1201.36000	1763.52000	-1137.10000	1297.95000	1757.46000	-1161.01000	1220.93000	1785.83000	-1220.55000	1273.03000	1805.57000	-786.12700	1305.63000	1262.78000	-887.12400	1243.03000	1112.37000	-941.12200	1207.40000	1036.52000	-997.09700	1261.17000	1127.31000	-906.60000	1289.24000	1259.85000	-989.71900	1318.36000	1259.49000	-966.43800	1351.61000	1306.53000	-664.50200	786.70300	1505.89000	-828.85600	814.03000	1289.40000	-545.94100	838.03600	1422.66000	-682.80100	849.87600	1204.69000	-552.86300	535.28200	1497.56000	-484.14300	376.63200	1464.59000	-372.42200	312.94700	1316.36000	-293.48500	218.34800	1167.68000	-336.54900	252.49600	1070.84000	-240.46400	19.94280	1152.45000	-885.60700	622.37900	1247.90000	-901.67100	404.85700	1296.64000	-785.86700	226.57300	1323.47000	-670.31600	83.10120	1382.72000	-610.55400	45.03810	1467.98000	-853.89800	49.01420	1356.65000
850	16.98000	-829.12500	1477.07000	1485.16000	-850.88700	1485.93000	1384.77000	-649.80900	1457.96000	1432.34000	-689.27500	1462.91000	1335.75000	-680.54800	1307.99000	1359.46000	-583.29000	977.17900	1316.53000	-789.09900	1213.81000	1413.68000	-810.66100	1053.65000	1435.02000	-633.69300	1181.43000	1253.27000	-672.93200	1279.12000	1531.84000	-737.82700	1196.50000	1635.13000	-849.95400	1161.22000	1692.91000	-1001.52000	1180.62000	1751.61000	-1113.76000	1278.72000	1745.30000	-1139.48000	1201.45000	1770.68000	-1198.74000	1254.09000	1789.80000	-788.53400	1297.91000	1260.49000	-909.44100	1222.03000	1133.39000	-973.65900	1179.04000	1069.84000	-1016.40000	1226.05000	1171.14000	-905.54100	1259.58000	1291.84000	-991.03500	1287.13000	1297.37000	-963.72100	1322.66000	1339.25000	-643.82900	782.29700	1494.82000	-819.18900	807.67100	1289.31000	-530.34000	834.86400	1405.97000	-679.26900	845.71300	1195.82000	-529.90100	532.23100	1478.31000	-459.31600	375.48100	1440.41000	-351.49400	308.78000	1289.11000	-277.16200	209.26100	1138.51000	-321.47900	239.59100	1041.17000	-226.31900	22.91600	1139.94000	-882.35800	620.39700	1248.18000	-902.00400	405.19100	1298.13000	-786.47200	226.80900	1324.52000	-670.28600	84.61300	1380.88000	-610.54200	45.24270	1467.68000	-854.02700	49.14950	1356.85000
851	17.00000	-806.25800	1470.45000	1483.86000	-835.23700	1479.61000	1385.29000	-631.61200	1452.43000	1418.18000	-677.59400	1457.79000	1324.86000	-667.29700	1301.76000	1347.54000	-570.87700	971.62200	1299.76000	-771.33800	1208.20000	1408.67000	-792.08700	1046.51000	1431.30000	-626.67500	1177.17000	1238.03000	-649.65000	1271.53000	1521.15000	-710.65400	1182.97000	1621.92000	-823.01500	1141.52000	1678.80000	-975.83600	1159.49000	1735.23000	-1085.90000	1259.87000	1728.66000	-1113.98000	1182.78000	1751.04000	-1172.57000	1236.26000	1769.38000	-789.15400	1289.19000	1254.56000	-920.81000	1199.14000	1153.37000	-990.71500	1149.34000	1100.90000	-1018.66000	1188.37000	1210.43000	-895.35500	1225.84000	1319.96000	-980.40900	1252.92000	1329.56000	-950.03800	1290.05000	1367.73000	-623.17500	776.90900	1481.86000	-807.70800	801.71200	1285.09000	-514.32000	828.88200	1388.11000	-672.35000	839.91700	1184.82000	-507.86700	527.37500	1458.00000	-436.93300	371.64600	1415.74000	-330.92300	302.71100	1262.55000	-262.44200	200.99400	1107.91000	-304.72000	225.46700	1004.57000	-219.59200	27.35280	1133.73000	-877.04800	619.95000	1243.83000	-900.81100	405.35500	1296.78000	-786.57800	225.83100	1324.54000	-670.51500	84.18880	1380.46000	-610.40500	45.38230	1467.22000	-854.03600	49.17490	1356.94000
852	17.02000	-779.81800	1465.38000	1478.20000	-815.70600	1474.77000	1381.63000	-610.18600	1447.67000	1401.51000	-661.43500	1453.41000	1311.10000	-649.85900	1297.37000	1332.99000	-556.17900	967.13700	1279.88000	-749.45300	1203.48000	1400.40000	-770.08200	1040.82000	1424.11000	-616.63300	1173.57000	1220.69000	-622.83800	1264.87000	1507.82000	-679.88700	1170.77000	1605.25000	-792.15900	1122.74000	1660.93000	-945.96400	1138.98000	1715.40000	-1053.56000	1241.80000	1710.08000	-1083.90000	1164.64000	1728.76000	-1141.69000	1218.98000	1747.18000	-783.18300	1280.09000	1247.70000	-921.10500	1176.12000	1168.43000	-991.65200	1119.97000	1125.52000	-1007.69000	1150.82000	1240.22000	-877.59000	1190.80000	1340.26000	-962.51900	1217.32000	1354.18000	-929.95500	1255.05000	1390.42000	-599.62000	772.92800	1465.52000	-793.65700	797.27000	1278.32000	-494.98600	824.38100	1366.53000	-663.29000	834.74500	1171.10000	-483.79100	523.77300	1435.16000	-414.03900	368.39300	1387.57000	-313.83200	296.44600	1230.33000	-252.71200	190.80600	1073.35000	-294.81400	203.84700	965.85200	-213.69500	30.47190	1127.09000	-868.77700	620.25300	1239.10000	-897.04900	407.22800	1295.08000	-785.26100	226.23100	1323.20000	-670.94000	84.64080	1378.65000	-610.19800	45.53200	1466.65000	-854.03700	49.22250	1357.13000
853	17.04000	-749.63200	1461.89000	1468.22000	-790.71300	1471.04000	1373.72000	-584.86500	1444.76000	1382.08000	-640.35300	1451.04000	1294.44000	-628.19600	1294.54000	1314.80000	-538.61800	963.94000	1255.90000	-723.05200	1200.42000	1388.86000	-743.92000	1037.05000	1414.76000	-604.00000	1170.65000	1200.25000	-590.50400	1260.22000	1488.67000	-642.83700	1161.40000	1584.55000	-754.56400	1106.11000	1639.18000	-908.80100	1119.62000	1692.68000	-1014.86000	1223.81000	1689.33000	-1046.55000	1146.76000	1704.62000	-1103.79000	1201.15000	1723.60000	-773.28100	1272.44000	1238.07000	-912.09300	1154.78000	1176.64000	-981.17400	1093.56000	1140.91000	-987.69600	1117.78000	1257.40000	-854.87500	1158.32000	1351.01000	-939.59800	1184.34000	1369.15000	-905.55100	1222.00000	1404.51000	-571.47400	770.77600	1445.46000	-776.26600	794.24000	1269.76000	-472.25500	820.94000	1340.36000	-651.82600	830.60200	1154.83000	-457.37300	521.18000	1407.67000	-390.90000	365.30000	1353.78000	-298.81300	287.42000	1192.57000	-247.03300	176.48800	1036.17000	-290.78000	172.62900	926.49500	-209.56600	33.07880	1120.35000	-860.05300	626.78400	1229.95000	-890.41600	411.33100	1292.88000	-782.38500	229.68800	1319.40000	-670.45500	84.65080	1376.84000	-609.94800	45.77230	1465.93000	-854.03200	49.32230	1357.35000
